<?xml version="1.0"?><svg width="793.7007874015749" height="1122.5196850393702" xmlns="http://www.w3.org/2000/svg">
 <title>Orange flower</title>

 <metadata id="metadata2994">image/svg+xml</metadata>
 <g>
  <title>Layer 1</title>
  <g id="layer1">
   <g id="g3020">
    <path fill="#ff007f" stroke="#000000" stroke-width="5" stroke-miterlimit="2" id="path2836" d="m449.889404,416.912231c0,62.304535 -36.972931,112.812195 -82.581482,112.812195c-45.608459,0 -82.581512,-50.50766 -82.581512,-112.812195c0,-62.304535 36.973053,-112.812317 82.581512,-112.812317c45.608551,0 82.581482,50.507782 82.581482,112.812317z"/>
    <path fill="#ff007f" stroke="#000000" stroke-width="5" stroke-miterlimit="2" id="path2836-1-8" d="m266.018188,427.743805c55.258606,28.780853 82.97525,84.904022 61.906891,125.354828c-21.068329,40.450684 -82.943451,49.911072 -138.202072,21.130188c-55.258636,-28.780884 -82.975311,-84.904205 -61.907005,-125.354889c21.068367,-40.450775 82.94355,-49.911011 138.202187,-21.130127z"/>
    <path fill="#ff007f" stroke="#000000" stroke-width="5" stroke-miterlimit="2" id="path2836-1-4" d="m190.980591,590.052246c52.154068,-34.085327 114.660187,-30.767456 139.611542,7.410706c24.951263,38.178101 2.899231,96.759094 -49.254822,130.844421c-52.154083,34.085327 -114.660355,30.767395 -139.611649,-7.410645c-24.951347,-38.178162 -2.899124,-96.759216 49.254929,-130.844482z"/>
    <path fill="#ff007f" stroke="#000000" stroke-width="5" stroke-miterlimit="2" id="path2836-1-0" d="m290.787842,733.832031c-2.35849,-62.259827 32.675995,-114.13092 78.251892,-115.857361c45.575745,-1.726501 84.434235,47.345337 86.792755,109.605225c2.35849,62.259888 -32.676117,114.131042 -78.251862,115.857544c-45.575897,1.726501 -84.434265,-47.34552 -86.792786,-109.605408z"/>
    <path fill="#ff007f" stroke="#000000" stroke-width="5" stroke-miterlimit="2" id="path2836-1" d="m544.743347,579.780029c-56.059692,27.187561 -117.638672,15.960327 -137.540741,-25.076843c-19.901978,-41.037109 9.409454,-96.344147 65.469147,-123.531738c56.059692,-27.187592 117.638855,-15.960297 137.540833,25.076782c19.902039,41.037201 -9.409546,96.344177 -65.469238,123.531799z"/>
    <path fill="#ff007f" stroke="#000000" stroke-width="5" stroke-miterlimit="2" id="path2836-1-7" d="m460.190979,725.051575c-53.539917,-31.864258 -78.033508,-89.467102 -54.708038,-128.659729c23.325409,-39.192566 85.637024,-45.133484 139.176971,-13.269226c53.539917,31.864258 78.033569,89.467285 54.70813,128.65979c-23.3255,39.192688 -85.637146,45.133423 -139.177063,13.269165z"/>
    <path fill="#f9b8b8" stroke="#000000" stroke-width="5" stroke-miterlimit="2" id="path2834" d="m469.669586,573.705566c0,59.038757 -47.860352,106.899109 -106.899109,106.899109c-59.038788,0 -106.899139,-47.860352 -106.899139,-106.899109c0,-59.038818 47.860352,-106.899139 106.899139,-106.899139c59.038757,0 106.899109,47.860321 106.899109,106.899139z"/>
   </g>
  </g>
 </g>
</svg>